<?xml version="1.0" encoding="utf-8"?>
<!-- Generator: Adobe Illustrator 25.0.1, SVG Export Plug-In . SVG Version: 6.00 Build 0)  -->
<svg version="1.1" xmlns="http://www.w3.org/2000/svg" xmlns:xlink="http://www.w3.org/1999/xlink" x="0px" y="0px"
	 viewBox="0 0 1320.57 1320.57" style="enable-background:new 0 0 1320.57 1320.57;" xml:space="preserve">
<style type="text/css">
	.st0{display:none;}
	.st1{display:inline;}
	.st2{fill:none;stroke:#000000;stroke-miterlimit:10;}
	.st3{display:inline;fill:none;stroke:#000000;stroke-miterlimit:10;}
	.st4{fill:#9CE501;}
	.st5{fill:#FFFFFF;}
</style>
<g id="Capa_1" class="st0">
	<g class="st1">
		<line class="st2" x1="-1413.75" y1="900.19" x2="-988.55" y2="163.72"/>
		<line class="st2" x1="-1355.04" y1="900.19" x2="-929.85" y2="163.72"/>
		<line class="st2" x1="-1117.98" y1="900.19" x2="-692.78" y2="163.72"/>
		<line class="st2" x1="-1235.59" y1="900.19" x2="-810.39" y2="163.72"/>
		<line class="st2" x1="-1176.88" y1="900.19" x2="-751.68" y2="163.72"/>
		<line class="st2" x1="-939.62" y1="900.19" x2="-514.42" y2="163.72"/>
		<line class="st2" x1="-880.92" y1="900.19" x2="-455.72" y2="163.72"/>
		<line class="st2" x1="-255.22" y1="900.19" x2="-680.42" y2="163.72"/>
		<line class="st2" x1="-313.93" y1="900.19" x2="-739.13" y2="163.72"/>
		<line class="st2" x1="-550.99" y1="900.19" x2="-976.19" y2="163.72"/>
		<line class="st2" x1="-433.81" y1="900.19" x2="-859.01" y2="163.72"/>
		<line class="st2" x1="-492.52" y1="900.19" x2="-917.71" y2="163.72"/>
		<line class="st2" x1="-729.35" y1="900.19" x2="-1154.55" y2="163.72"/>
		<line class="st2" x1="-788.06" y1="900.19" x2="-1213.25" y2="163.72"/>
		<line class="st2" x1="-1442.89" y1="745.37" x2="-224.23" y2="745.37"/>
		<line class="st2" x1="-1442.89" y1="794.08" x2="-224.23" y2="794.08"/>
		<line class="st2" x1="-1442.89" y1="846.46" x2="-224.23" y2="846.46"/>
		<line class="st2" x1="-1442.89" y1="895.18" x2="-224.23" y2="895.18"/>
		<line class="st2" x1="-1442.89" y1="943.89" x2="-224.23" y2="943.89"/>
		<line class="st2" x1="-1442.89" y1="992.61" x2="-224.23" y2="992.61"/>
		<line class="st2" x1="-1442.89" y1="1041.32" x2="-224.23" y2="1041.32"/>
		<line class="st2" x1="-1442.89" y1="1090.04" x2="-224.23" y2="1090.04"/>
		<line class="st2" x1="-1442.89" y1="1138.75" x2="-224.23" y2="1138.75"/>
		<line class="st2" x1="-1442.89" y1="1187.46" x2="-224.23" y2="1187.46"/>
	</g>
	<line class="st3" x1="-1352.47" y1="1229" x2="-1352.47" y2="159.67"/>
	<line class="st3" x1="-834.49" y1="1229" x2="-834.49" y2="159.67"/>
	<line class="st3" x1="-316.54" y1="1227.81" x2="-316.54" y2="158.48"/>
	<g class="st1">
		<path class="st4" d="M-585.77,983.5c0,3.28-2.87,5.74-6.46,5.74h-82.62c-3.59,0-6.71-2.46-6.71-5.74V919.3
			c0-3.08,2.87-5.54,6.71-5.54h73.04c3.59,0,6.46,2.67,6.46,5.74c0,3.08-2.87,5.54-6.46,5.54h-66.57v52.91h76.15
			C-588.64,977.96-585.77,980.42-585.77,983.5z"/>
		<path class="st4" d="M-681.56,855.52c0-3.28,2.87-5.74,6.47-5.74h78.07c3.59,0,6.46,2.46,6.46,5.74c0,3.08-2.87,5.54-6.46,5.54
			h-78.07C-678.68,861.06-681.56,858.6-681.56,855.52z"/>
		<path class="st4" d="M-681.56,919.5c0-3.28,2.87-5.74,6.47-5.74h78.07c3.59,0,6.46,2.46,6.46,5.74c0,3.08-2.87,5.54-6.46,5.54
			h-78.07C-678.68,925.04-681.56,922.58-681.56,919.5z"/>
		<path class="st4" d="M-681.73,983.69c0-3.28,2.87-5.74,6.47-5.74h78.07c3.59,0,6.46,2.46,6.46,5.74c0,3.08-2.87,5.54-6.46,5.54
			h-78.07C-678.85,989.22-681.73,986.76-681.73,983.69z"/>
	</g>
	<g class="st1">
		<path d="M-812.65,982.63c-0.01-0.04-0.01-0.07-0.02-0.11c-0.07-0.28-0.19-0.56-0.31-0.84c-0.07-0.15-0.11-0.29-0.19-0.44
			l-0.04-0.07l-64.4-127.71l-0.23-0.45c-0.15-0.29-0.33-0.56-0.53-0.82c-0.72-0.96-1.76-1.64-2.93-2.05c0,0-0.01,0-0.01,0
			c-0.01,0-0.02,0-0.03-0.01c-0.38-0.13-0.76-0.25-1.17-0.32c-0.42-0.08-0.85-0.13-1.27-0.14c-0.04,0-0.08-0.01-0.13-0.01
			c-0.04,0-0.08,0.01-0.13,0.01c-0.42,0.01-0.85,0.06-1.27,0.14c-0.4,0.07-0.79,0.18-1.17,0.32c-0.01,0-0.02,0-0.03,0.01
			c0,0-0.01,0-0.01,0c-1.17,0.42-2.2,1.09-2.93,2.05c-0.19,0.26-0.38,0.52-0.53,0.82l-0.23,0.45l-64.4,127.71l-0.04,0.07
			c-0.08,0.14-0.12,0.29-0.19,0.44c-0.12,0.28-0.24,0.56-0.31,0.84c-0.01,0.04-0.01,0.07-0.02,0.11c-0.07,0.31-0.11,0.62-0.13,0.93
			c-0.03,2.22,1.52,4.36,4,5.27c0.21,0.06,0.46,0.11,0.7,0.16c0.4,0.08,0.77,0.13,1.13,0.18c0.25,0.03,0.49,0.07,0.75,0.07
			c0.58,0,1.15-0.08,1.69-0.2c1.7-0.4,3.24-1.41,4.18-2.85c0.06-0.1,0.15-0.18,0.21-0.28l0.88-1.68l14.1-28.21h0.16l5.68-11.28
			h-0.08l16.67-32.92l21.29-42.05l20.66,40.81l17.29,34.17h-0.08l5.68,11.28h0.15l14.1,28.21l0.88,1.68
			c0.06,0.1,0.15,0.18,0.21,0.28c0.94,1.45,2.48,2.46,4.18,2.85c0.55,0.12,1.11,0.2,1.69,0.2c0.25,0,0.5-0.04,0.75-0.07
			c0.36-0.04,0.73-0.09,1.13-0.18c0.24-0.05,0.5-0.1,0.7-0.16c2.48-0.91,4.03-3.05,4-5.27
			C-812.53,983.25-812.57,982.94-812.65,982.63z"/>
		<path d="M-903.65,983.7c0-3.28,2.88-5.74,6.48-5.74h78.2c3.6,0,6.48,2.46,6.48,5.74c0,3.08-2.88,5.54-6.48,5.54h-78.2
			C-900.77,989.24-903.65,986.78-903.65,983.7z"/>
	</g>
	<path class="st1" d="M-344.61,745.37l-223.46-387.05l-21.57-37.37c-3.46-5.99-12.1-5.99-15.56,0l-21.58,37.37l-59.94,103.82
		l-21.57,37.37c-3.46,5.99-12.1,5.99-15.56,0l-81.4-140.99l-21.67-37.54c-3.46-5.99-12.1-5.99-15.56,0l-21.46,37.17l-81.4,140.99
		c-3.46,5.99-12.1,5.99-15.56,0l-21.57-37.37l-59.73-103.45l-21.57-37.37c-3.46-5.99-12.1-5.99-15.56,0l-21.57,37.38l-223.46,387.04
		l-20.35,35.24c-3.46,5.99,0.86,13.47,7.78,13.47h157.42c3.21,0,6.17-1.71,7.78-4.49l17.76-30.75c3.46-5.99-0.86-13.47-7.78-13.47
		h-88.35c-6.91,0-11.23-7.48-7.78-13.47l178.55-309.27c3.46-5.99,12.1-5.99,15.56,0l51.95,89.99l26.76,46.35
		c1.6,2.78,1.6,6.2,0,8.98l-102.44,177.42l-20.34,35.24c-3.46,5.99,0.86,13.47,7.78,13.47h530.73c6.91,0,11.23-7.49,7.78-13.47
		l-20.35-35.24l-102.22-177.06c-1.6-2.78-1.6-6.2,0-8.98l26.77-46.35l52.16-90.35c3.46-5.99,12.1-5.99,15.56,0l178.55,309.27
		c3.46,5.99-0.86,13.47-7.78,13.47h-88.77c-6.91,0-11.23,7.49-7.78,13.47l17.76,30.75c1.6,2.78,4.57,4.49,7.78,4.49h157.84
		c6.91,0,11.23-7.48,7.78-13.47L-344.61,745.37z M-826.71,422.63l78.81,136.51c1.6,2.78,1.6,6.2,0,8.98l-78.81,136.5
		c-3.46,5.99-12.1,5.99-15.56,0l-78.8-136.5c-1.6-2.78-1.6-6.2,0-8.98l78.8-136.51C-838.81,416.65-830.17,416.65-826.71,422.63z
		 M-1020.81,731.9l60.01-103.96c3.46-5.99,12.1-5.99,15.56,0l60.02,103.96c3.46,5.99-0.86,13.47-7.78,13.47h-120.03
		C-1019.95,745.37-1024.27,737.89-1020.81,731.9z M-655.93,745.37h-120.04c-6.91,0-11.23-7.48-7.78-13.47l60.02-103.96
		c3.46-5.99,12.1-5.99,15.56,0l60.02,103.96C-644.7,737.89-649.02,745.37-655.93,745.37z"/>
	<text transform="matrix(1.1665 0 0 1 -1363.3853 989.2393)" class="st1"><tspan x="0" y="0" style="font-family:'Trakya-Rounded-Alt-300-Light'; font-size:205.0475px;">STRAT</tspan><tspan x="584.17" y="0" class="st4" style="font-family:'Trakya-Rounded-Alt-300-Light'; font-size:205.0475px;">EPS</tspan></text>
</g>
<g id="Capa_2">
	<g>
		<path d="M682.05,961.98l-64.11-127.13l-0.23-0.45c-0.15-0.29-0.33-0.56-0.53-0.82c-0.72-0.96-1.76-1.64-2.93-2.05c0,0,0,0-0.01,0
			c-0.01,0-0.02,0-0.03-0.01c-0.38-0.13-0.76-0.25-1.17-0.32c-0.42-0.08-0.85-0.13-1.27-0.14c-0.04,0-0.08-0.01-0.13-0.01
			c-0.04,0-0.08,0.01-0.13,0.01c-0.42,0.01-0.85,0.06-1.27,0.14c-0.4,0.07-0.79,0.18-1.17,0.32c-0.01,0-0.02,0-0.02,0.01
			c0,0-0.01,0-0.01,0c-1.17,0.42-2.2,1.09-2.93,2.05c-0.19,0.26-0.38,0.52-0.53,0.82l-0.23,0.45l-64.4,127.71l-0.04,0.07
			c-0.08,0.14-0.12,0.29-0.19,0.44c-0.12,0.28-0.24,0.56-0.31,0.84c-0.01,0.04-0.01,0.07-0.02,0.11c-0.07,0.31-0.11,0.62-0.13,0.93
			c-0.03,2.22,1.52,4.36,4,5.27c0.21,0.06,0.46,0.11,0.7,0.16c0.4,0.08,0.77,0.13,1.13,0.18c0.25,0.03,0.49,0.07,0.75,0.07
			c0.58,0,1.15-0.08,1.69-0.2c1.7-0.4,3.24-1.41,4.18-2.85c0.06-0.1,0.15-0.18,0.21-0.28l0.88-1.68l14.1-28.21h0.16l5.68-11.28
			h-0.08l16.67-32.92l21.29-42.05l20.66,40.81l17.29,34.17h-0.08l5.68,11.28h0.15l10.98,21.95h-67.97c-3.6,0-6.48,2.46-6.48,5.74
			c0,3.08,2.88,5.54,6.48,5.54h78.2c3.6,0,6.48-2.46,6.48-5.54C683.05,963.93,682.68,962.87,682.05,961.98z"/>
		<path d="M1150.94,726.77L927.48,339.72l-21.57-37.37c-3.46-5.99-12.1-5.99-15.56,0l-21.58,37.37l-59.94,103.82l-21.57,37.37
			c-3.46,5.99-12.1,5.99-15.56,0l-81.4-140.99l-21.67-37.54c-3.46-5.99-12.1-5.99-15.56,0l-21.46,37.17l-81.4,140.99
			c-3.46,5.99-12.1,5.99-15.56,0l-21.57-37.37l-59.73-103.45l-21.57-37.37c-3.46-5.99-12.1-5.99-15.56,0l-21.57,37.38L171.19,726.77
			L150.84,762c-3.46,5.99,0.86,13.47,7.78,13.47h157.42c3.21,0,6.17-1.71,7.78-4.49l17.76-30.75c3.46-5.99-0.86-13.47-7.78-13.47
			h-88.35c-6.91,0-11.23-7.48-7.78-13.47l178.55-309.27c3.46-5.99,12.1-5.99,15.56,0l51.95,89.99l26.76,46.35
			c1.6,2.78,1.6,6.2,0,8.98L408.05,726.77L387.71,762c-3.46,5.99,0.86,13.47,7.78,13.47h530.73c6.91,0,11.23-7.48,7.78-13.47
			l-20.35-35.24L811.42,549.71c-1.6-2.78-1.6-6.2,0-8.98l26.77-46.35l52.16-90.35c3.46-5.99,12.1-5.99,15.56,0l178.55,309.27
			c3.46,5.99-0.86,13.47-7.78,13.47h-88.77c-6.91,0-11.23,7.49-7.78,13.47l17.76,30.75c1.6,2.78,4.57,4.49,7.78,4.49h157.84
			c6.91,0,11.23-7.48,7.78-13.47L1150.94,726.77z M668.84,404.03l78.81,136.51c1.6,2.78,1.6,6.2,0,8.98l-78.81,136.5
			c-3.46,5.99-12.1,5.99-15.56,0l-78.8-136.5c-1.6-2.78-1.6-6.2,0-8.98l78.8-136.51C656.74,398.04,665.38,398.04,668.84,404.03z
			 M474.74,713.29l60.01-103.96c3.46-5.99,12.1-5.99,15.56,0l60.02,103.96c3.46,5.99-0.86,13.47-7.78,13.47H482.51
			C475.6,726.77,471.28,719.28,474.74,713.29z M839.61,726.77H719.57c-6.91,0-11.23-7.48-7.78-13.47l60.02-103.96
			c3.46-5.99,12.1-5.99,15.56,0l60.02,103.96C850.85,719.28,846.53,726.77,839.61,726.77z"/>
		<path d="M172.11,846.38c-6.46,4.31-9.57,10.46-9.57,17.63c0,8.82,3.35,14.56,11,18.45c7.42,3.69,18.18,5.33,29.42,6.97
			c12.68,2.05,25.59,3.9,35.88,9.23c5.98,3.08,10.52,7.18,13.4,11.89c3.35,5.33,5.26,11.69,5.26,19.07
			c0,11.89-5.98,22.97-16.5,31.17c-10.76,8.41-25.59,12.92-41.62,12.92c-19.85,0-38.03-6.36-53.1-18.66c-2.63-2.25-2.63-5.74-0.24-8
			c2.63-2.26,6.7-2.26,9.33-0.21c12.44,10.25,27.75,15.58,44.01,15.58c12.68,0,24.4-3.49,32.77-10.05
			c7.65-6.15,11.96-14.15,11.96-22.76c0-21.33-16.5-25.02-43.29-28.91c-11.96-1.85-24.4-3.69-33.97-8.61
			c-5.5-2.67-9.81-6.36-12.92-10.87c-3.11-4.72-4.78-10.46-4.78-17.22c0-5.33,1.43-10.46,4.07-14.97
			c2.39-4.51,5.98-8.41,10.76-11.48c8.85-6.15,21.05-9.43,35.4-9.43c3.59,0,6.46,2.46,6.46,5.74c0,3.08-2.87,5.54-6.46,5.54
			C188.13,839.4,178.8,841.87,172.11,846.38z"/>
		<path d="M382.12,836.74c0,3.28-2.87,5.74-6.46,5.74h-44.25V965.1c0,3.08-2.87,5.54-6.7,5.54c-3.59,0-6.46-2.46-6.46-5.54V842.48
			H274c-3.59,0-6.7-2.46-6.7-5.74c0-3.08,3.11-5.54,6.7-5.54h101.66C379.25,831.2,382.12,833.66,382.12,836.74z"/>
		<path d="M408.66,836.94c0-3.28,2.87-5.74,6.46-5.74h60.52c25.35,0,46.17,18.45,46.17,41.01c0,19.27-15.07,35.27-35.16,39.78
			l37.31,50.03c2.87,3.49-0.24,8.61-5.74,8.61c-2.15,0-4.07-0.82-5.26-2.46l-40.9-54.95h-50.23v51.88c0,3.08-2.87,5.54-6.46,5.54
			h-0.24c-3.59,0-6.46-2.46-6.46-5.54v-57.62c0-3.08,2.87-5.54,6.7-5.54h60.28c18.18,0,32.77-13.33,32.77-29.73
			s-14.59-29.73-32.77-29.73h-60.52C411.53,842.48,408.66,840.02,408.66,836.94z"/>
		<path d="M787.54,836.74c0,3.28-2.87,5.74-6.46,5.74h-44.25V965.1c0,3.08-2.87,5.54-6.7,5.54c-3.59,0-6.46-2.46-6.46-5.54V842.48
			h-44.25c-3.59,0-6.7-2.46-6.7-5.74c0-3.08,3.11-5.54,6.7-5.54h101.66C784.67,831.2,787.54,833.66,787.54,836.74z"/>
		<g>
			<path class="st4" d="M903.31,959.35h-4.6c-0.12-0.01-0.24-0.02-0.36-0.02h-71.12v-52.88h66.5c0.19,0,0.37-0.01,0.55-0.02h4.24
				c3.59,0,6.46-2.46,6.46-5.54c0-3.28-2.87-5.74-6.46-5.74h-78.07c-1.93,0-3.66,0.72-4.84,1.89c-1.02,0.97-1.63,2.25-1.63,3.66
				v63.05c-0.11,0.43-0.17,0.87-0.17,1.33c0,3.08,2.87,5.54,6.47,5.54h0.04c0.12,0.01,0.24,0.02,0.37,0.02h0.07c0,0,0.01,0,0.01,0
				h82.52c0,0,0.01,0,0.01,0h0.01c3.59,0,6.46-2.46,6.46-5.74C909.78,961.81,906.91,959.35,903.31,959.35z"/>
			<path class="st4" d="M818.01,842.05c0.77,0.28,1.63,0.43,2.53,0.43h77.98c2.69,0,4.98-1.39,5.96-3.38
				c0.33-0.67,0.52-1.41,0.52-2.18c0-3.28-2.87-5.74-6.46-5.74h-78.07c-3.59,0-6.47,2.46-6.47,5.74
				C813.99,839.25,815.65,841.23,818.01,842.05z"/>
		</g>
		<path class="st4" d="M940.85,836.94c0-3.28,2.87-5.74,6.46-5.74h51.91v0.21c26.31,1.44,47.36,20.09,47.36,42.86
			c0,23.79-22.72,43.06-50.71,43.06h-41.86v47.57c0,3.28-2.87,5.74-6.7,5.74c-3.59,0-6.46-2.46-6.46-5.74v-53.31
			c0-3.08,2.87-5.54,6.7-5.54h48.32c20.81,0,37.79-14.35,37.79-31.78c0-17.02-16.26-30.96-36.36-31.78h-49.99
			C943.72,842.48,940.85,840.02,940.85,836.94z"/>
		<path class="st4" d="M1092.5,846.38c-6.46,4.31-9.57,10.46-9.57,17.63c0,8.82,3.35,14.56,11,18.45
			c7.42,3.69,18.18,5.33,29.42,6.97c12.68,2.05,25.59,3.9,35.88,9.23c5.98,3.08,10.52,7.18,13.4,11.89
			c3.35,5.33,5.26,11.69,5.26,19.07c0,11.89-5.98,22.97-16.5,31.17c-10.76,8.41-25.59,12.92-41.62,12.92
			c-19.85,0-38.03-6.36-53.1-18.66c-2.63-2.25-2.63-5.74-0.24-8c2.63-2.26,6.7-2.26,9.33-0.21c12.44,10.25,27.75,15.58,44.01,15.58
			c12.68,0,24.4-3.49,32.77-10.05c7.65-6.15,11.96-14.15,11.96-22.76c0-21.33-16.5-25.02-43.29-28.91
			c-11.96-1.85-24.4-3.69-33.97-8.61c-5.5-2.67-9.81-6.36-12.92-10.87c-3.11-4.72-4.78-10.46-4.78-17.22
			c0-5.33,1.43-10.46,4.07-14.97c2.39-4.51,5.98-8.41,10.76-11.48c8.85-6.15,21.05-9.43,35.4-9.43c3.59,0,6.46,2.46,6.46,5.74
			c0,3.08-2.87,5.54-6.46,5.54C1108.52,839.4,1099.19,841.87,1092.5,846.38z"/>
	</g>
	<rect y="1430.83" width="1320.57" height="1320.57"/>
	<g>
		<path class="st5" d="M681.26,2417.31l-64.11-127.13l-0.23-0.45c-0.15-0.29-0.33-0.56-0.53-0.82c-0.72-0.96-1.76-1.64-2.93-2.05
			c0,0,0,0-0.01,0c-0.01,0-0.02,0-0.03-0.01c-0.38-0.13-0.76-0.25-1.17-0.32c-0.42-0.08-0.85-0.13-1.27-0.14
			c-0.04,0-0.08-0.01-0.13-0.01c-0.04,0-0.08,0.01-0.13,0.01c-0.42,0.01-0.85,0.06-1.27,0.14c-0.4,0.07-0.79,0.18-1.17,0.32
			c-0.01,0-0.02,0-0.02,0.01c0,0-0.01,0-0.01,0c-1.17,0.42-2.2,1.09-2.93,2.05c-0.19,0.26-0.38,0.52-0.53,0.82l-0.23,0.45
			l-64.4,127.71l-0.04,0.07c-0.08,0.14-0.12,0.29-0.19,0.44c-0.12,0.28-0.24,0.56-0.31,0.84c-0.01,0.04-0.01,0.07-0.02,0.11
			c-0.07,0.31-0.11,0.62-0.13,0.93c-0.03,2.22,1.52,4.36,4,5.27c0.21,0.06,0.46,0.11,0.7,0.16c0.4,0.08,0.77,0.13,1.13,0.18
			c0.25,0.03,0.49,0.07,0.75,0.07c0.58,0,1.15-0.08,1.69-0.2c1.7-0.4,3.24-1.41,4.18-2.85c0.06-0.1,0.15-0.18,0.21-0.28l0.88-1.68
			l14.1-28.21h0.16l5.68-11.28h-0.08l16.67-32.92l21.29-42.05l20.66,40.81l17.29,34.17h-0.08l5.68,11.28h0.15l10.98,21.95h-67.97
			c-3.6,0-6.48,2.46-6.48,5.74c0,3.08,2.88,5.54,6.48,5.54h78.2c3.6,0,6.48-2.46,6.48-5.54
			C682.26,2419.26,681.89,2418.2,681.26,2417.31z"/>
		<path class="st5" d="M1150.14,2182.1l-223.46-387.05l-21.57-37.37c-3.46-5.99-12.1-5.99-15.56,0l-21.58,37.37l-59.94,103.82
			l-21.57,37.37c-3.46,5.99-12.1,5.99-15.56,0l-81.4-140.99l-21.67-37.54c-3.46-5.99-12.1-5.99-15.56,0l-21.46,37.17l-81.4,140.99
			c-3.46,5.99-12.1,5.99-15.56,0l-21.57-37.37l-59.73-103.45l-21.57-37.37c-3.46-5.99-12.1-5.99-15.56,0l-21.57,37.38L170.39,2182.1
			l-20.35,35.24c-3.46,5.99,0.86,13.47,7.78,13.47h157.42c3.21,0,6.17-1.71,7.78-4.49l17.76-30.75c3.46-5.99-0.86-13.47-7.78-13.47
			h-88.35c-6.91,0-11.23-7.48-7.78-13.47l178.55-309.27c3.46-5.99,12.1-5.99,15.56,0l51.95,89.99l26.76,46.35
			c1.6,2.78,1.6,6.2,0,8.98L407.25,2182.1l-20.34,35.24c-3.46,5.99,0.86,13.47,7.78,13.47h530.73c6.91,0,11.23-7.49,7.78-13.47
			l-20.35-35.24l-102.22-177.06c-1.6-2.78-1.6-6.2,0-8.98l26.77-46.35l52.16-90.35c3.46-5.99,12.1-5.99,15.56,0l178.55,309.27
			c3.46,5.99-0.86,13.47-7.78,13.47h-88.77c-6.91,0-11.23,7.49-7.78,13.47l17.76,30.75c1.6,2.78,4.57,4.49,7.78,4.49h157.84
			c6.91,0,11.23-7.48,7.78-13.47L1150.14,2182.1z M668.04,1859.36l78.81,136.51c1.6,2.78,1.6,6.2,0,8.98l-78.81,136.5
			c-3.46,5.99-12.1,5.99-15.56,0l-78.8-136.5c-1.6-2.78-1.6-6.2,0-8.98l78.8-136.51C655.94,1853.37,664.59,1853.37,668.04,1859.36z
			 M473.94,2168.62l60.01-103.96c3.46-5.99,12.1-5.99,15.56,0l60.02,103.96c3.46,5.99-0.86,13.47-7.78,13.47H481.72
			C474.81,2182.1,470.48,2174.61,473.94,2168.62z M838.82,2182.1H718.78c-6.91,0-11.23-7.48-7.78-13.47l60.02-103.96
			c3.46-5.99,12.1-5.99,15.56,0l60.02,103.96C850.05,2174.61,845.73,2182.1,838.82,2182.1z"/>
		<path class="st5" d="M171.31,2301.71c-6.46,4.31-9.57,10.46-9.57,17.63c0,8.82,3.35,14.56,11,18.45
			c7.42,3.69,18.18,5.33,29.42,6.97c12.68,2.05,25.59,3.9,35.88,9.23c5.98,3.08,10.52,7.18,13.4,11.89
			c3.35,5.33,5.26,11.69,5.26,19.07c0,11.89-5.98,22.97-16.5,31.17c-10.76,8.41-25.59,12.92-41.62,12.92
			c-19.85,0-38.03-6.36-53.1-18.66c-2.63-2.25-2.63-5.74-0.24-8c2.63-2.26,6.7-2.26,9.33-0.21c12.44,10.25,27.75,15.58,44.01,15.58
			c12.68,0,24.4-3.49,32.77-10.05c7.65-6.15,11.96-14.15,11.96-22.76c0-21.33-16.5-25.02-43.29-28.91
			c-11.96-1.85-24.4-3.69-33.97-8.61c-5.5-2.67-9.81-6.36-12.92-10.87c-3.11-4.72-4.78-10.46-4.78-17.22
			c0-5.33,1.43-10.46,4.07-14.97c2.39-4.51,5.98-8.41,10.76-11.48c8.85-6.15,21.05-9.43,35.4-9.43c3.59,0,6.46,2.46,6.46,5.74
			c0,3.08-2.87,5.54-6.46,5.54C187.34,2294.74,178.01,2297.2,171.31,2301.71z"/>
		<path class="st5" d="M381.32,2292.07c0,3.28-2.87,5.74-6.46,5.74h-44.25v122.62c0,3.08-2.87,5.54-6.7,5.54
			c-3.59,0-6.46-2.46-6.46-5.54v-122.62h-44.25c-3.59,0-6.7-2.46-6.7-5.74c0-3.08,3.11-5.54,6.7-5.54h101.66
			C378.45,2286.53,381.32,2288.99,381.32,2292.07z"/>
		<path class="st5" d="M407.87,2292.27c0-3.28,2.87-5.74,6.46-5.74h60.52c25.35,0,46.17,18.45,46.17,41.01
			c0,19.27-15.07,35.27-35.16,39.78l37.31,50.03c2.87,3.49-0.24,8.61-5.74,8.61c-2.15,0-4.07-0.82-5.26-2.46l-40.9-54.95h-50.23
			v51.88c0,3.08-2.87,5.54-6.46,5.54h-0.24c-3.59,0-6.46-2.46-6.46-5.54v-57.62c0-3.08,2.87-5.54,6.7-5.54h60.28
			c18.18,0,32.77-13.33,32.77-29.73s-14.59-29.73-32.77-29.73h-60.52C410.74,2297.81,407.87,2295.35,407.87,2292.27z"/>
		<path class="st5" d="M786.74,2292.07c0,3.28-2.87,5.74-6.46,5.74h-44.25v122.62c0,3.08-2.87,5.54-6.7,5.54
			c-3.59,0-6.46-2.46-6.46-5.54v-122.62h-44.25c-3.59,0-6.7-2.46-6.7-5.74c0-3.08,3.11-5.54,6.7-5.54h101.66
			C783.87,2286.53,786.74,2288.99,786.74,2292.07z"/>
		<g>
			<path class="st4" d="M902.52,2414.68h-4.6c-0.12-0.01-0.24-0.02-0.36-0.02h-71.12v-52.88h66.5c0.19,0,0.37-0.01,0.55-0.02h4.24
				c3.59,0,6.46-2.46,6.46-5.54c0-3.28-2.87-5.74-6.46-5.74h-78.07c-1.93,0-3.66,0.72-4.84,1.89c-1.02,0.97-1.63,2.25-1.63,3.66
				v63.05c-0.11,0.43-0.17,0.87-0.17,1.33c0,3.08,2.87,5.54,6.47,5.54h0.04c0.12,0.01,0.24,0.02,0.37,0.02h0.07c0,0,0.01,0,0.01,0
				h82.52c0,0,0.01,0,0.01,0h0.01c3.59,0,6.46-2.46,6.46-5.74C908.99,2417.15,906.11,2414.68,902.52,2414.68z"/>
			<path class="st4" d="M817.22,2297.38c0.77,0.28,1.63,0.43,2.53,0.43h77.98c2.69,0,4.98-1.39,5.96-3.38
				c0.33-0.67,0.52-1.41,0.52-2.18c0-3.28-2.87-5.74-6.46-5.74h-78.07c-3.59,0-6.47,2.46-6.47,5.74
				C813.2,2294.58,814.85,2296.56,817.22,2297.38z"/>
		</g>
		<path class="st4" d="M940.06,2292.27c0-3.28,2.87-5.74,6.46-5.74h51.91v0.21c26.31,1.44,47.36,20.09,47.36,42.86
			c0,23.79-22.72,43.06-50.71,43.06h-41.86v47.57c0,3.28-2.87,5.74-6.7,5.74c-3.59,0-6.46-2.46-6.46-5.74v-53.31
			c0-3.08,2.87-5.54,6.7-5.54h48.32c20.81,0,37.79-14.35,37.79-31.78c0-17.02-16.26-30.96-36.36-31.78h-49.99
			C942.93,2297.81,940.06,2295.35,940.06,2292.27z"/>
		<path class="st4" d="M1091.7,2301.71c-6.46,4.31-9.57,10.46-9.57,17.63c0,8.82,3.35,14.56,11,18.45
			c7.42,3.69,18.18,5.33,29.42,6.97c12.68,2.05,25.59,3.9,35.88,9.23c5.98,3.08,10.52,7.18,13.4,11.89
			c3.35,5.33,5.26,11.69,5.26,19.07c0,11.89-5.98,22.97-16.5,31.17c-10.76,8.41-25.59,12.92-41.62,12.92
			c-19.85,0-38.03-6.36-53.1-18.66c-2.63-2.25-2.63-5.74-0.24-8c2.63-2.26,6.7-2.26,9.33-0.21c12.44,10.25,27.75,15.58,44.01,15.58
			c12.68,0,24.4-3.49,32.77-10.05c7.65-6.15,11.96-14.15,11.96-22.76c0-21.33-16.5-25.02-43.29-28.91
			c-11.96-1.85-24.4-3.69-33.97-8.61c-5.5-2.67-9.81-6.36-12.92-10.87c-3.11-4.72-4.78-10.46-4.78-17.22
			c0-5.33,1.43-10.46,4.07-14.97c2.39-4.51,5.98-8.41,10.76-11.48c8.85-6.15,21.05-9.43,35.4-9.43c3.59,0,6.46,2.46,6.46,5.74
			c0,3.08-2.87,5.54-6.46,5.54C1107.73,2294.74,1098.4,2297.2,1091.7,2301.71z"/>
	</g>
</g>
</svg>
